<svg width="384" height="144" viewBox="0 0 384 144" fill="none" xmlns="http://www.w3.org/2000/svg" class="wsc-svg-logo-edraw-zh-horizontal-white">
<path d="M331.696 54.0316C333.428 54.6173 335.195 55.0944 336.987 55.4601C337.249 55.4736 337.495 55.5873 337.676 55.7777C337.856 55.9681 337.957 56.2206 337.957 56.483V58.4758C337.958 58.6126 337.928 58.7478 337.869 58.8712C337.81 58.9946 337.724 59.1029 337.617 59.1879C337.509 59.2729 337.384 59.3324 337.251 59.3618C337.117 59.3912 336.978 59.3898 336.846 59.3576C333.66 58.6129 330.535 57.6283 327.498 56.4124C324.212 58.0178 320.675 59.0498 317.04 59.4634H316.935C316.709 59.4599 316.491 59.379 316.317 59.2342C316.219 59.1447 316.14 59.0358 316.085 58.9145C316.031 58.7931 316.002 58.6618 316 58.5287V56.7651C316.002 56.4525 316.117 56.1513 316.325 55.9176C316.533 55.684 316.818 55.5339 317.129 55.4954C318.998 55.2813 320.837 54.8613 322.613 54.2432L321.59 53.7493C321.491 53.7015 321.403 53.6326 321.333 53.5473C321.263 53.462 321.212 53.3624 321.185 53.2556C321.137 53.1598 321.112 53.0541 321.112 52.947C321.112 52.8398 321.137 52.734 321.185 52.6382L322.367 50.7688C322.487 50.5811 322.672 50.4447 322.887 50.3861C323.102 50.3274 323.331 50.3507 323.53 50.4514C324.483 50.9981 325.735 51.6154 327.058 52.215C328.472 51.4459 329.838 50.592 331.149 49.6579H322.225C321.083 51.0813 319.727 52.3188 318.204 53.3261C318.107 53.387 317.993 53.4194 317.878 53.4194C317.763 53.4194 317.65 53.387 317.552 53.3261C317.45 53.2715 317.365 53.19 317.306 53.0906C317.247 52.9911 317.216 52.8774 317.217 52.7617V49.8342C317.215 49.6544 317.252 49.4763 317.325 49.3119C317.398 49.1476 317.505 49.0009 317.64 48.8819C318.819 47.7413 319.855 46.4622 320.726 45.0725L320.832 44.9138C320.991 44.685 321.201 44.497 321.447 44.3652C321.692 44.2334 321.965 44.1614 322.243 44.1554H324.553C324.683 44.1547 324.81 44.1887 324.921 44.2539C325.033 44.319 325.125 44.4129 325.188 44.5258C325.253 44.6384 325.287 44.7661 325.287 44.8962C325.287 45.0262 325.253 45.1538 325.188 45.2664L324.906 45.7603H336.281C336.592 45.7603 336.889 45.8823 337.111 46.1001C337.332 46.3179 337.458 46.6139 337.463 46.9242V49.4815C335.763 51.2603 333.821 52.792 331.696 54.0316Z" fill="white"/>
<path d="M331.962 63.5725H332.103C332.228 63.5774 332.353 63.5566 332.469 63.5116C332.586 63.4666 332.692 63.3982 332.781 63.3106C332.87 63.2231 332.94 63.1183 332.988 63.0026C333.035 62.8869 333.058 62.7628 333.055 62.6379V60.8743C333.056 60.6319 332.971 60.397 332.817 60.2103C332.662 60.0235 332.447 59.8966 332.209 59.8514C328.853 59.2498 325.458 58.8961 322.051 58.7933C321.788 58.795 321.536 58.8958 321.345 59.0754C321.25 59.1624 321.173 59.2687 321.122 59.3872C321.07 59.5058 321.044 59.6339 321.046 59.7632V61.5268C321.05 61.7628 321.143 61.9884 321.306 62.1585C321.47 62.3286 321.692 62.4306 321.927 62.4439C324.202 62.585 329.81 63.2198 331.962 63.5725Z" fill="white"/>
<path d="M319.74 63.8724C324.704 64.0998 329.647 64.6595 334.536 65.5477C334.784 65.6014 335.004 65.7404 335.159 65.9404C335.313 66.1403 335.393 66.3884 335.383 66.6411V68.2637C335.384 68.417 335.35 68.5686 335.283 68.7063C335.215 68.8441 335.117 68.9642 334.995 69.0573C334.825 69.1945 334.613 69.2692 334.395 69.2689H334.166C329.383 68.3655 324.547 67.7763 319.687 67.5053C319.423 67.4961 319.174 67.3837 318.993 67.1923C318.811 67.001 318.712 66.7461 318.717 66.4824V64.8423C318.715 64.7104 318.741 64.5795 318.793 64.458C318.844 64.3366 318.921 64.2272 319.017 64.1368C319.215 63.9594 319.474 63.8648 319.74 63.8724Z" fill="white"/>
<path fill-rule="evenodd" clip-rule="evenodd" d="M341.778 38.6001H312.401C311.763 38.6045 311.152 38.8583 310.702 39.3061C310.252 39.7539 310 40.3594 310 40.9904V72.4337C310.004 73.0619 310.259 73.6631 310.708 74.1073C311.158 74.5515 311.766 74.803 312.401 74.8074H341.778C342.416 74.8074 343.028 74.5578 343.482 74.1131C343.935 73.6685 344.191 73.0648 344.196 72.4337V40.9904C344.196 40.6765 344.133 40.3657 344.012 40.0757C343.89 39.7857 343.712 39.5222 343.488 39.3002C343.263 39.0782 342.996 38.9021 342.703 38.782C342.41 38.6619 342.095 38.6001 341.778 38.6001ZM314.329 70.595V42.8961H339.934V70.5281L314.329 70.595Z" fill="white"/>
<path d="M273.048 39.0169H275.52C275.716 39.0132 275.909 39.0576 276.084 39.1463C276.258 39.2349 276.408 39.3651 276.52 39.5253C276.632 39.6801 276.708 39.8584 276.742 40.0468C276.775 40.2351 276.765 40.4285 276.713 40.6125C276.115 42.6863 275.286 44.6862 274.24 46.5744V73.5606C274.243 73.7463 274.208 73.9307 274.139 74.1029C274.069 74.2751 273.966 74.4318 273.836 74.564C273.705 74.6961 273.55 74.8009 273.378 74.8725C273.207 74.9441 273.023 74.9811 272.837 74.981H270.611C270.234 74.981 269.873 74.8314 269.606 74.565C269.34 74.2987 269.19 73.9373 269.19 73.5606V54.4476C268.095 55.8637 266.874 57.1783 265.543 58.3754C265.409 58.4936 265.243 58.5705 265.066 58.5968C264.889 58.6231 264.708 58.5977 264.545 58.5236C264.382 58.4495 264.243 58.3299 264.147 58.1792C264.05 58.0285 263.999 57.853 264 57.674V53.6409C264.006 53.0944 264.191 52.5649 264.526 52.133C267.405 48.4897 269.733 44.4425 271.435 40.1216C271.564 39.7981 271.786 39.5202 272.073 39.3235C272.36 39.1267 272.7 39.02 273.048 39.0169Z" fill="white"/>
<path d="M299.21 63.5665H301.261C301.471 63.5877 301.674 63.6514 301.858 63.7539C302.042 63.8565 302.203 63.9955 302.331 64.1627C302.611 64.4553 302.768 64.8446 302.769 65.2498C302.765 65.3738 302.761 65.5041 302.757 65.6391L302.756 65.6426C302.725 66.6335 302.684 67.8781 302.577 68.7568C302.447 70.473 301.667 72.075 300.396 73.2353C299.125 74.3955 297.459 75.0265 295.738 74.9992H284.393C283.451 74.9801 282.524 74.7625 281.672 74.3606C280.819 73.9588 280.062 73.3818 279.448 72.6672C278.844 71.805 278.429 70.8254 278.23 69.7921C278.03 68.7587 278.051 67.6949 278.29 66.6701C278.799 63.9172 280.973 60.1471 284.919 55.1497C285.287 54.6587 289.951 48.7144 293.581 44.8742H279.553C279.355 44.8742 279.159 44.8353 278.976 44.7595C278.793 44.6837 278.627 44.5726 278.487 44.4325C278.347 44.2925 278.236 44.1263 278.16 43.9433C278.084 43.7604 278.045 43.5643 278.045 43.3662V41.227C278.045 40.8271 278.204 40.4434 278.487 40.1606C278.77 39.8778 279.153 39.7189 279.553 39.7189H298.842C299.204 39.7189 299.552 39.863 299.809 40.1195C300.065 40.376 300.209 40.724 300.209 41.0867V43.5591C300.202 44.1893 300 44.8019 299.631 45.3126V45.4178C298.684 46.7329 296.492 49.3456 294.16 52.1162C293.449 52.9432 292.733 53.7488 292.045 54.5242C290.865 55.8531 289.763 57.0935 288.899 58.2008C286.549 61.1818 283.674 65.3902 283.288 67.5119C283.222 67.8115 283.217 68.1214 283.274 68.4229C283.332 68.7243 283.45 69.011 283.621 69.2654C283.758 69.4331 283.929 69.5699 284.122 69.6666C284.315 69.7634 284.527 69.8179 284.743 69.8265H295.51C296.01 69.8399 296.498 69.6684 296.879 69.3449C297.261 69.0214 297.51 68.5686 297.579 68.073C297.702 67.4418 297.702 66.0915 297.702 65.0745C297.706 64.676 297.867 64.2951 298.148 64.0132C298.43 63.7314 298.811 63.5711 299.21 63.5665Z" fill="white"/>
<path d="M137.012 64.1372V56.2184C137.012 48.3573 141.058 44.1378 149.093 44.1378C150.885 44.1378 153.139 44.369 155.971 44.8892V33.9647C155.971 32.6353 156.376 32.1729 157.705 32.1729H160.884C162.214 32.1729 162.676 32.6353 162.676 33.9647V70.7844C162.676 72.6341 162.214 73.2121 160.364 73.9635C157.07 75.1774 153.486 75.8132 149.555 75.8132C141.174 75.8132 137.012 71.9405 137.012 64.1372ZM155.971 51.0162C153.659 50.496 151.81 50.2648 150.365 50.2648C145.914 50.2648 143.717 52.2879 143.717 56.3918V63.906C143.717 67.7787 145.856 69.6862 150.191 69.6862C152.214 69.6862 154.006 69.455 155.509 69.0504C155.798 68.9348 155.971 68.7036 155.971 68.4146V51.0162Z" fill="white"/>
<path d="M107 56.623V63.4436C107 71.0156 111.277 75.8132 120.294 75.8132C126.364 75.8132 130.525 73.9635 132.78 70.2642C133.647 68.9348 133.415 68.0099 132.086 67.3741L130.063 66.2759C128.676 65.5245 128.04 65.6401 127.115 66.9695C125.786 68.9926 123.531 70.033 120.294 70.033C116.075 70.033 113.705 68.0099 113.705 64.2528V62.1142H131.161C132.895 62.1142 133.762 61.3049 133.762 59.6287V56.1028C133.762 49.1088 129.196 44.1378 120.41 44.1378C111.682 44.1378 107 48.5307 107 56.623ZM127.057 55.6982V56.9698H113.705V55.6982C113.705 51.941 116.075 49.8024 120.41 49.8024C124.803 49.8024 127.057 51.941 127.057 55.6982Z" fill="white"/>
<path d="M181.013 44.1378H182.862C184.192 44.1378 184.654 44.5424 184.654 45.9297V48.4729C184.654 49.8024 184.192 50.2648 182.862 50.2648H180.782C178.643 50.2648 176.793 50.496 175.29 50.9584C174.886 51.0162 174.712 51.2474 174.712 51.652V73.1543C174.712 74.4837 174.308 74.9462 172.978 74.9462H169.799C168.47 74.9462 168.007 74.4837 168.007 73.1543V49.1666C168.007 47.3169 168.412 46.6233 170.262 45.8719C173.094 44.8314 176.678 44.2534 181.013 44.1378Z" fill="white"/>
<path d="M198.85 44.1378C192.955 44.1378 188.966 46.1609 186.885 50.1492C186.25 51.3052 186.596 52.1723 187.868 52.7503L190.18 53.7329C191.51 54.1953 191.799 54.0797 192.666 52.8659C193.879 51.0162 195.902 50.0914 198.735 50.0914C202.896 50.0914 204.515 52.0567 204.515 55.8138V57.4322C203.267 57.3665 202.227 57.3092 201.394 57.2632C200.027 57.1879 199.217 57.1432 198.966 57.1432C189.544 57.1432 185.361 59.5709 185.361 66.4493C185.361 69.6284 186.77 71.9983 188.619 73.5011C190.469 75.0618 193.822 75.8132 198.735 75.8132C203.359 75.8132 206.827 75.293 209.139 74.3103C210.758 73.6167 211.22 73.0387 211.22 71.0156V56.045C211.22 48.1261 207.116 44.1378 198.85 44.1378ZM204.515 68.9926C204.515 69.3972 204.284 69.6284 203.879 69.8018C202.492 70.0908 200.584 70.2642 198.099 70.2642C193.879 70.2642 192.666 68.9926 192.666 66.3915C192.666 63.8482 194.053 62.6344 198.215 62.6344C198.279 62.6344 198.61 62.6505 199.21 62.6797C200.216 62.7288 201.98 62.8147 204.515 62.9234V68.9926Z" fill="white"/>
<path d="M252.908 45.0048H251.001C248.747 45.0048 248.053 45.3517 247.764 46.7967L244.585 59.6865C244.122 61.5939 243.776 64.1372 243.718 65.6979L243.602 66.7961H243.255C243.255 66.4493 242.851 62.6344 242.042 59.6865L238.169 46.9701C237.706 45.4095 237.302 45.1782 235.221 45.1782H233.891C231.811 45.1782 231.406 45.4095 230.944 47.0279L227.129 59.6865C226.435 62.4032 225.915 66.4493 225.915 66.7961H225.626C225.626 66.7961 225.106 61.9408 224.643 59.7443L221.348 46.7967C221.059 45.3517 220.424 45.0048 218.169 45.0048H215.915C214.239 45.0048 213.95 45.4095 214.47 47.0857L222.158 73.3855C222.447 74.4837 223.256 75.0039 224.585 75.0039H226.493C227.822 75.0039 228.632 74.4837 228.921 73.3855L233.14 58.5883C233.602 56.9698 233.949 54.8889 234.123 53.5595L234.238 52.6347H234.527L234.643 53.5595C234.816 54.8889 235.105 56.9698 235.568 58.5883L239.787 73.3855C240.134 74.4837 240.943 75.0039 242.273 75.0039H244.238C245.567 75.0039 246.377 74.4837 246.666 73.3855L254.411 47.0857C254.874 45.4095 254.585 45.0048 252.908 45.0048Z" fill="white"/>
<path d="M113.604 91.6102C111.16 91.6102 109.808 92.8582 109.158 94.3142V86.5142H107V105H109.08V102.712C109.756 104.142 111.186 105.286 113.5 105.286C117.556 105.286 119.48 101.776 119.48 98.2922C119.48 94.8602 117.556 91.6102 113.604 91.6102ZM113.214 103.362C110.406 103.362 109.184 101.074 109.184 98.5782C109.184 96.0042 110.458 93.6122 113.318 93.6122C116.126 93.6122 117.322 95.8742 117.322 98.3962C117.322 100.944 116.1 103.362 113.214 103.362Z" fill="white"/>
<path d="M130.152 91.8442L126.356 102.062L122.56 91.8442H120.272L125.316 104.922L125.082 105.546C124.484 107.184 123.158 107.366 122.144 107.366H121.442V109.264H122.222C124.484 109.264 126.096 108.25 126.928 106.066L132.336 91.8442H130.152Z" fill="white"/>
<path d="M157.722 91.8442H155.538L152.314 102.14L148.908 91.8442H146.75L143.448 102.062L140.198 91.8442H137.936L142.434 105H144.41L147.816 95.0162L151.274 105H153.276L157.722 91.8442Z" fill="white"/>
<path d="M164.944 91.6102C161.252 91.6102 158.626 94.2362 158.626 98.4482C158.626 102.686 161.252 105.286 164.944 105.286C168.662 105.286 171.288 102.686 171.288 98.4482C171.288 94.2362 168.662 91.6102 164.944 91.6102ZM169.078 98.4482C169.078 101.438 167.466 103.31 164.996 103.31C162.63 103.31 160.836 101.62 160.836 98.4482C160.836 95.4582 162.448 93.5862 164.918 93.5862C167.284 93.5862 169.078 95.2762 169.078 98.4482Z" fill="white"/>
<path d="M180.438 91.6102C178.228 91.6102 176.902 92.7022 176.148 94.1322V91.8442H174.016V105H176.174V98.2662C176.174 95.3542 177.708 93.5602 180.048 93.5602C182.05 93.5602 182.908 94.8602 182.908 96.2902V105H185.066V96.0822C185.066 93.2222 183.142 91.6102 180.438 91.6102Z" fill="white"/>
<path d="M200.194 86.5142H198.036V94.0022C197.334 92.6502 195.878 91.6102 193.642 91.6102C189.586 91.6102 187.662 95.0422 187.662 98.4482C187.662 101.88 189.56 105.286 193.616 105.286C196.086 105.286 197.49 104.012 198.114 102.426V105H200.194V86.5142ZM193.876 103.284C191.068 103.284 189.872 100.97 189.872 98.4222C189.872 95.9002 191.068 93.5342 193.902 93.5342C196.71 93.5342 197.984 95.8222 197.984 98.3442C197.984 100.892 196.71 103.284 193.876 103.284Z" fill="white"/>
<path d="M214.811 98.9682V97.9542C214.811 93.6382 212.211 91.6102 209.065 91.6102C205.919 91.6102 202.929 93.6902 202.929 98.4222C202.929 103.128 205.893 105.286 209.039 105.286C211.535 105.286 214.031 103.986 214.707 101.178H212.575C212.133 102.582 210.781 103.362 209.143 103.362C206.881 103.362 205.113 101.932 205.035 98.9682H214.811ZM209.013 93.4822C211.145 93.4822 212.653 94.9382 212.653 97.2262H205.087C205.373 94.5222 207.115 93.4822 209.013 93.4822Z" fill="white"/>
<path d="M224.317 91.7142H223.693C221.743 91.7142 220.339 92.5202 219.663 94.1322V91.8442H217.531V105H219.689V98.1622C219.689 95.2242 221.145 93.7682 223.719 93.7682H224.317V91.7142Z" fill="white"/>
<path d="M231.366 97.5382C229.468 97.2522 227.934 96.9402 227.934 95.4582C227.934 94.1062 229.234 93.5342 230.716 93.5342C232.302 93.5342 233.784 94.2102 233.81 95.7702H236.02C235.994 92.8842 233.472 91.6102 230.716 91.6102C227.934 91.6102 225.698 92.9102 225.698 95.5622C225.698 98.9422 229.26 99.2542 231.574 99.6182C232.9 99.8262 234.096 100.138 234.096 101.438C234.096 102.738 232.874 103.362 231.236 103.362C229.442 103.362 227.856 102.634 227.596 100.892H225.36C225.62 103.856 228.194 105.286 231.08 105.286C233.836 105.286 236.384 103.96 236.384 101.152C236.384 98.1362 233.472 97.8502 231.366 97.5382Z" fill="white"/>
<path d="M245.397 91.6102C243.187 91.6102 241.887 92.7282 241.133 94.1842V86.5142H238.975V105H241.133V98.2662C241.133 95.3542 242.667 93.5602 245.007 93.5602C247.009 93.5602 247.867 94.8602 247.867 96.2902V105H250.025V96.0822C250.025 93.2222 248.101 91.6102 245.397 91.6102Z" fill="white"/>
<path d="M258.861 91.6102C255.819 91.6102 253.427 93.0922 253.037 95.8222H255.221C255.559 94.3922 256.729 93.5082 258.757 93.5082C260.369 93.5082 261.435 94.0802 261.435 95.4062C261.435 96.6542 260.551 96.9142 259.199 97.1482L256.599 97.5902C255.403 97.7982 252.621 98.3182 252.621 101.464C252.621 103.986 254.519 105.286 256.807 105.286C258.263 105.286 260.265 104.766 261.461 102.868V105H263.567V95.7962C263.567 92.8582 261.721 91.6102 258.861 91.6102ZM261.409 98.1622V99.3582C261.409 102.036 259.329 103.362 257.249 103.362C255.897 103.362 254.805 102.816 254.805 101.282C254.805 99.5142 256.261 99.2282 257.587 99.0202L259.173 98.7602C260.265 98.5782 260.785 98.4482 261.409 98.1622Z" fill="white"/>
<path d="M273.858 91.7142H273.234C271.284 91.7142 269.88 92.5202 269.204 94.1322V91.8442H267.072V105H269.23V98.1622C269.23 95.2242 270.686 93.7682 273.26 93.7682H273.858V91.7142Z" fill="white"/>
<path d="M286.658 98.9682V97.9542C286.658 93.6382 284.058 91.6102 280.912 91.6102C277.766 91.6102 274.776 93.6902 274.776 98.4222C274.776 103.128 277.74 105.286 280.886 105.286C283.382 105.286 285.878 103.986 286.554 101.178H284.422C283.98 102.582 282.628 103.362 280.99 103.362C278.728 103.362 276.96 101.932 276.882 98.9682H286.658ZM280.86 93.4822C282.992 93.4822 284.5 94.9382 284.5 97.2262H276.934C277.22 94.5222 278.962 93.4822 280.86 93.4822Z" fill="white"/>
<path d="M54 48H30C26.6863 48 24 45.3137 24 42C24 38.6863 26.6863 36 30 36H54C73.8823 36 90 52.1177 90 72C90 91.8823 73.8823 108 54 108H30C26.6863 108 24 105.314 24 102C24 98.6863 26.6863 96 30 96H54C67.2548 96 78 85.2548 78 72C78 58.7452 67.2548 48 54 48Z" fill="white"/>
<path d="M54 78H30C26.6863 78 24 75.3137 24 72C24 68.6863 26.6863 66 30 66H54C57.3137 66 60 68.6863 60 72C60 75.3137 57.3137 78 54 78Z" fill="white"/>
</svg>
