<svg width="604" height="144" viewBox="0 0 604 144" fill="none" xmlns="http://www.w3.org/2000/svg" class="wsc-svg-logo-spotmau-zh-horizontal-white">
<path d="M238.694 60.9951V66.6558H231.43V83.0718C231.43 85.8404 231.645 86.3756 234.192 86.3756C235.727 86.3756 237.844 86.2624 238.694 86.1595V90.9556C237.896 91.1718 235.297 91.8099 232.648 91.8099C226.776 91.8099 224.444 89.4633 224.444 83.1747V66.6455H218.879V60.9951H224.444V55.9931L230.428 53.7494C230.919 53.5642 231.43 53.9244 231.43 54.4493V60.9951H238.694Z" fill="white"/>
<path d="M139.608 91.7582C135.475 91.7582 130.76 91.0068 129.43 90.5849V85.5726C129.838 85.6 130.457 85.6616 131.216 85.7374C133.312 85.9462 136.481 86.2622 139.281 86.2622C143.628 86.2622 144.795 85.2535 144.795 83.1128C144.795 81.0337 143.894 80.4985 139.496 78.7386L137.214 77.8329C131.598 75.5995 129 73.0367 129 68.395C129 62.374 132.969 60.2436 140.918 60.2436C144.304 60.2436 148.764 60.9331 150.247 61.4169V66.3262C146.902 66.0072 143.618 65.791 141.02 65.791C137.419 65.791 135.874 66.1101 135.874 68.2406C135.874 70.1549 136.938 70.6901 140.59 72.131L142.974 73.0882C149.388 75.7024 151.608 77.7299 151.659 82.6805C151.689 88.3412 147.925 91.7582 139.608 91.7582Z" fill="white"/>
<path d="M277.75 71.3385V91.0068H284.737V71.2253C284.737 65.8425 284.205 60.2436 275.786 60.2436C273.034 60.2436 269.904 61.1493 266.518 63.4959C265.3 61.4683 263.275 60.2436 259.736 60.2436C256.452 60.2436 253.26 61.4683 250.825 63.3827L245.148 61.3448C244.657 61.1699 244.156 61.5404 244.156 62.055V91.0068H251.102V68.0347C252.902 67.129 255.337 66.1204 257.516 66.1204C260.912 66.1204 260.963 67.9833 260.963 71.3385V91.0068H267.96V71.3385C267.96 70.2784 267.96 69.1051 267.797 67.9318C269.863 66.81 272.298 66.1204 273.996 66.1204C277.699 66.1204 277.75 68.0347 277.75 71.3385Z" fill="white"/>
<path fill-rule="evenodd" clip-rule="evenodd" d="M164.61 91.1214C166.144 91.4919 168.691 91.7595 170.543 91.7595C178.338 91.7595 183.688 88.291 183.688 77.1549V74.3863C183.688 64.0427 179.606 60.2552 172.927 60.2552C170.011 60.2552 166.881 61.1094 164.18 62.9723L158.625 61.2947C158.145 61.1506 157.664 61.5108 157.664 62.0151V102H164.61V91.1214ZM164.558 67.8706C167.412 66.5944 169.11 66.2753 171.023 66.2753C174.89 66.2753 176.742 68.0868 176.752 74.3753V77.1542C176.752 84.5028 174.307 85.8922 170.072 85.8922C168.425 85.8922 166.573 85.6761 164.558 85.3056V67.8706Z" fill="white"/>
<path fill-rule="evenodd" clip-rule="evenodd" d="M189.089 77.8445C189.089 87.3339 193.866 91.8109 202.551 91.8109C211.246 91.8109 216.013 87.3236 216.013 77.8445V74.1702C216.013 64.7323 211.246 60.2552 202.551 60.2552C193.866 60.2552 189.089 64.7323 189.089 74.1702V77.8445ZM202.551 66.2647C207.104 66.2647 209.068 68.4055 209.068 74.1588V77.8331C209.068 83.5967 207.114 85.7787 202.551 85.7787C197.989 85.7787 196.035 83.5864 196.035 77.8331V74.1588C196.035 68.3952 198.05 66.2647 202.551 66.2647Z" fill="white"/>
<path d="M331.752 91.8109C335.2 91.8109 338.535 90.5244 342.084 88.6101L347.803 90.8949C348.283 91.0802 348.815 90.72 348.815 90.1951V61.0065H341.818V83.8757C338.647 85.1004 336.049 85.9032 334.033 85.9032C330.535 85.9032 329.737 84.3491 329.737 80.0882V61.0065H322.801V80.0882C322.801 86.2635 323.967 91.8109 331.752 91.8109Z" fill="white"/>
<path fill-rule="evenodd" clip-rule="evenodd" d="M309.073 89.0307C307.222 90.307 303.877 91.7993 299.642 91.7993C294.077 91.7993 290.895 89.0308 290.895 83.2157V82.0938C290.895 74.0968 296.614 73.0264 304.992 73.0264H308.541V71.1635C308.541 66.9026 307.641 66.0483 302.342 66.0483C299.376 66.0483 296.245 66.2645 292.972 66.635V61.8903C294.24 61.3551 298.69 60.2436 303.519 60.2436C313.053 60.2436 315.539 63.4959 315.539 71.1738V90.3173C315.539 90.8319 315.027 91.2024 314.546 91.0171L309.073 89.0307ZM308.715 77.3596V84.8729C307.651 85.511 304.735 86.6843 301.871 86.6843C299.385 86.6843 297.687 85.933 297.687 83.1644V81.8882C297.687 77.9463 299.856 77.3596 304.991 77.3596H308.715Z" fill="white"/>
<path d="M454.743 60.9773L450.937 58L448.223 61.7045L451.432 64.3523C452.146 65.0576 452.523 66.0391 452.468 67.0454V68.2613H448.404V73.1818H452.468V77.8977H448.404V82.8181H452.468V85.875C452.489 86.2693 452.403 86.6619 452.221 87.0113C452.028 87.3793 451.641 87.601 451.23 87.5795H448.404V91.9999H454.033C454.82 92.0052 455.575 91.6897 456.128 91.1249C456.703 90.586 457.026 89.8265 457.017 89.034V65.6136C457.005 63.7975 456.166 62.0879 454.743 60.9773Z" fill="white"/>
<path d="M481.146 58.1591V61.1477H485.571V65.4318H481.146V67.8182H476.046V65.4318H467.95V67.8182H462.861V65.4318H458.988V61.1477H462.861V58.1591H467.95V61.1477H476.046V58.1591H481.146Z" fill="white"/>
<path fill-rule="evenodd" clip-rule="evenodd" d="M435.129 85.1477C438.225 85.1363 440.263 83.2159 440.263 80.2386V70.3636C440.272 69.9629 440.07 69.5873 439.734 69.375C439.287 69.0771 438.76 68.9263 438.225 68.9432H422.135V65.2386H440.601V60.5682H422.135V58.1705H416.697V68.9545H405.809V83.7272C405.798 84.1342 406.004 84.5157 406.349 84.7272C406.782 85.0168 407.293 85.1637 407.813 85.1477H435.129ZM434.768 79.4204L434.779 74.6931C434.79 74.413 434.664 74.1453 434.442 73.9772C434.251 73.8201 434.012 73.7356 433.766 73.7386H411.247V79.4204C411.248 79.6941 411.357 79.9561 411.551 80.1477C411.743 80.3401 412.001 80.45 412.272 80.4545H433.755C434.025 80.45 434.284 80.3401 434.475 80.1477C434.667 79.9557 434.773 79.693 434.768 79.4204Z" fill="white"/>
<path d="M371.467 77.9659H368.933V87.3522H371.579V91.9999H360.5V87.3522H363.518V77.9659H360.59V73.2841H363.518V64.5227H360.59V59.8295H371.467V64.5227H368.933V73.2841H371.467V77.9659Z" fill="white"/>
<path d="M398.298 77.9659H395.776V87.3522H398.422V91.9999H387.591V87.3522H390.608V77.9659H387.669V73.2841H390.608V64.5227H387.669V59.8295H398.298V64.5227H395.776V73.2841H398.298V77.9659Z" fill="white"/>
<path fill-rule="evenodd" clip-rule="evenodd" d="M484.457 70.2841C483.976 69.8708 483.366 69.6415 482.734 69.6363H459.303L459.303 89.8409C459.299 90.4373 459.585 90.9979 460.068 91.3408C460.541 91.755 461.143 91.9883 461.769 91.9999H480.054C483.894 91.9999 485.256 89.3977 485.256 87.1818V71.7841C485.249 71.1822 484.95 70.6221 484.457 70.2841ZM469.819 87.6818V82.9659H464.021V86.659C463.989 86.9327 464.081 87.206 464.271 87.404C464.461 87.6021 464.728 87.704 465 87.6818H469.819ZM469.819 73.9432V78.7727H464.021V73.9432H469.819ZM480.482 86.659L480.527 82.9659H474.683V87.6818H479.469C479.728 87.6853 479.978 87.5875 480.167 87.409C480.378 87.2191 480.493 86.944 480.482 86.659ZM480.527 74.9772L480.482 78.7727H474.683V73.9432H479.514C479.782 73.9404 480.04 74.0517 480.223 74.25C480.42 74.4393 480.53 74.7027 480.527 74.9772Z" fill="white"/>
<path d="M410.301 87.284H405.032V91.9886H410.301V87.284Z" fill="white"/>
<path d="M415.177 87.284H420.457V91.9886H415.177V87.284Z" fill="white"/>
<path d="M430.805 87.284H425.569V91.9886H430.805V87.284Z" fill="white"/>
<path d="M435.68 87.284H440.961V91.9886H435.68V87.284Z" fill="white"/>
<path d="M385.564 61.7614C385.874 61.973 386.06 62.3266 386.059 62.7045V73.2159L382.265 82.5795L386.059 91.9545H380.643L379.517 89.2499L378.391 91.9545H372.976L376.781 82.5795L372.987 73.2159V67.7613H378.403V73.2045L379.529 75.8977L380.655 73.2045V66.8182C380.657 66.5399 380.532 66.2761 380.317 66.1023C380.125 65.957 379.892 65.8774 379.653 65.875H373.043V61.3295H376.421V58.9432H381.904V61.3295H384.258C384.726 61.3405 385.18 61.4907 385.564 61.7614Z" fill="white"/>
<path d="M65.1496 80.7357L65.167 80.727C65.3416 80.6833 65.4639 80.5261 65.4726 80.3252C65.4726 80.313 65.4707 80.3008 65.4687 80.2878C65.4664 80.2728 65.4639 80.2565 65.4639 80.2378C64.2416 73.2589 60.0773 69.3895 51.6264 70.0271L51.609 70.0358C51.3995 70.0533 51.2423 70.2192 51.2423 70.4201C50.0812 78.3686 55.9741 83.1814 65.1496 80.7357Z" fill="white"/>
<path d="M70.8504 80.727L70.8592 80.7357C80.0346 83.1814 85.9363 78.3686 84.7664 70.4289C84.7577 70.228 84.6005 70.062 84.3997 70.0445V70.0358C75.9401 69.3895 71.7758 73.2589 70.5623 80.2466C70.5536 80.2728 70.5536 80.299 70.5536 80.3339C70.5536 80.5173 70.6758 80.6746 70.8504 80.727Z" fill="white"/>
<path fill-rule="evenodd" clip-rule="evenodd" d="M68.0044 111C89.5432 111 107 93.5432 107 71.9956C107 50.4656 89.5344 33 68.0044 33C46.4656 33 29 50.4656 29 71.9956C29 93.5432 46.4656 111 68.0044 111ZM90.9038 54.2436C90.895 54.2524 90.895 54.2698 90.895 54.2873L88.7911 66.7778C88.7561 66.8913 88.7474 67.0136 88.7474 67.1359C88.7474 67.4067 88.8085 67.66 88.922 67.8871C98.2022 88.1426 70.4663 92.475 67.9956 92.475C65.5163 92.475 37.7803 88.1426 47.0605 67.8871C47.174 67.6513 47.2264 67.4067 47.2264 67.1359C47.2264 67.0049 47.2177 66.8913 47.1915 66.7778L45.0962 54.2436C45.0962 54.2262 45.0941 54.2065 45.0919 54.1869C45.0897 54.1672 45.0875 54.1476 45.0875 54.1301C45.0875 53.772 45.3843 53.475 45.751 53.475C45.8383 53.475 45.9169 53.4925 45.9867 53.5187L46.0042 53.5274C46.0092 53.5324 46.0113 53.5346 46.0139 53.5355C46.0158 53.5361 46.0179 53.5361 46.0216 53.5361L57.8424 58.5411C57.9821 58.6109 58.1567 58.6546 58.3225 58.6546C58.4266 58.6546 58.6189 58.6105 58.6979 58.5924C58.7182 58.5877 58.7329 58.5847 58.7329 58.5847C59.9725 58.1567 63.7527 57.0125 68.0044 57.0475C72.2647 57.0125 76.0362 58.1567 77.2759 58.5847C77.2759 58.5847 77.5552 58.6546 77.6775 58.6546C77.8521 58.6546 78.0267 58.6109 78.1664 58.5411L90.0046 53.5361C90.0831 53.5012 90.1617 53.4837 90.2577 53.4837C90.6157 53.4837 90.9125 53.772 90.9125 54.1388C90.9125 54.1576 90.91 54.1738 90.9077 54.1888C90.9057 54.2019 90.9038 54.214 90.9038 54.2262V54.2436Z" fill="white"/>
</svg>
