<svg width="404" height="328" viewBox="0 0 404 328" fill="none" xmlns="http://www.w3.org/2000/svg" class="wsc-svg-logo-wondershare-zh-slogan-vertical-white">
<path d="M157.099 152.266C147.98 152.266 141.749 159.528 141.749 168.028C141.749 176.519 147.98 183.795 157.099 183.795C160.565 183.795 164.484 181.988 166.345 178.966V183.018H173.342V137.977H166.345V157.088C164.484 154.063 160.565 152.266 157.099 152.266ZM157.483 158.504C162.881 158.504 166.345 162.882 166.345 168.028C166.345 173.174 162.881 177.552 157.483 177.552C152.218 177.552 148.748 173.174 148.748 168.028C148.748 162.882 152.218 158.504 157.483 158.504Z" fill="white"/>
<path d="M260.224 183.018H267.23V167.515C267.23 162.366 269.536 158.439 274.423 158.439C279.433 158.439 280.903 162.366 280.903 167.515V183.018H287.908V165.196C287.908 161.074 287.455 158.565 285.981 156.318C284.311 153.81 281.29 152.266 276.989 152.266C272.556 152.266 269.092 154.001 267.23 157.225V137.977H260.224V183.018Z" fill="white"/>
<path d="M41.3119 183.018H36.6212L25 153.036H32.5123L38.9983 172.016L45.7421 153.036H52.6118L59.3565 172.016L65.8404 153.036H73.353L61.7302 183.018H57.0429L49.2093 160.631L41.3119 183.018Z" fill="white"/>
<path d="M89.1821 152.262C79.6818 152.262 73.4494 159.524 73.4494 168.024C73.4494 176.516 79.6818 183.791 89.1821 183.791C98.8157 183.791 105.047 176.516 105.047 168.024C105.047 159.524 98.8157 152.262 89.1821 152.262ZM80.4499 168.024C80.4499 162.878 83.9168 158.5 89.1821 158.5C94.58 158.5 98.0469 162.878 98.0469 168.024C98.0469 173.17 94.5801 177.548 89.1821 177.548C83.9168 177.548 80.4499 173.17 80.4499 168.024Z" fill="white"/>
<path d="M109.325 183.018H116.321V167.515C116.321 162.366 118.636 158.439 123.513 158.439C128.524 158.439 130.004 162.366 130.004 167.515V183.018H137V165.196C137 161.074 136.55 158.565 135.075 156.318C133.405 153.81 130.391 152.266 126.081 152.266C121.654 152.266 118.186 154.001 116.321 157.225V153.036H109.325L109.325 183.018Z" fill="white"/>
<path d="M177.747 168.028C177.747 176.2 182.626 183.795 192.71 183.795C200.35 183.795 205.167 179.154 206.131 174.013H199.066C198.17 176.133 196.691 177.931 192.71 177.931C187.059 177.931 184.937 174.46 184.874 170.15H206.068C206.387 168.225 206.387 166.809 206.387 165.777C206.387 158.118 200.29 152.266 192.519 152.266C183.08 152.266 177.747 159.02 177.747 168.028ZM184.937 164.944C184.937 160.498 188.213 158.118 192.327 158.118C196.562 158.118 199.584 160.754 199.584 164.944H184.937Z" fill="white"/>
<path d="M210.664 183.018H217.659V170.089C217.659 162.622 220.938 159.212 226.913 159.212C227.999 159.212 228.579 159.275 229.67 159.528V153.097C228.897 152.777 227.999 152.65 226.913 152.65C222.926 152.65 219.009 155.09 217.659 157.862V153.036H210.664V183.018Z" fill="white"/>
<path d="M248.489 162.436H255.295C255.295 156.576 250.22 152.266 243.866 152.266C237.764 152.266 232.626 155.285 232.626 160.951C232.626 166.162 235.582 167.71 239.758 169.313C246.048 171.759 249.069 171.957 249.069 174.784C249.069 177.354 246.946 178.26 244.185 178.26C240.846 178.26 238.406 176.844 238.406 172.917H231.597C231.597 179.994 237.379 183.795 243.801 183.795C250.349 183.795 255.743 180.897 255.743 174.652C255.743 169.189 251.767 167.71 247.59 166.1C242.133 163.978 239.371 163.652 239.371 161.074C239.371 158.952 241.299 157.798 243.669 157.798C247.075 157.798 248.489 159.6 248.489 162.436Z" fill="white"/>
<path d="M307.629 152.266C298.514 152.266 292.281 159.528 292.281 168.028C292.281 176.519 298.514 183.795 307.629 183.795C311.1 183.795 315.014 181.988 316.88 178.966V183.018H323.882V153.036H316.88V157.088C315.014 154.063 311.1 152.266 307.629 152.266ZM308.02 158.504C313.415 158.504 316.88 162.882 316.88 168.028C316.88 173.174 313.415 177.552 308.02 177.552C302.755 177.552 299.287 173.174 299.287 168.028C299.287 162.882 302.755 158.504 308.02 158.504Z" fill="white"/>
<path d="M330.198 183.018H337.202V170.089C337.202 162.622 340.473 159.212 346.445 159.212C347.538 159.212 348.112 159.275 349.206 159.528V153.097C348.435 152.777 347.538 152.65 346.445 152.65C342.464 152.65 338.547 155.09 337.202 157.862V153.036H330.198V183.018Z" fill="white"/>
<path d="M364.931 158.118C369.165 158.118 372.187 160.754 372.187 164.944H357.545C357.545 160.498 360.817 158.118 364.931 158.118ZM378.67 170.15C378.991 168.225 378.991 166.809 378.991 165.777C378.991 158.118 372.893 152.266 365.119 152.266C355.678 152.266 350.351 159.02 350.351 168.028C350.351 176.2 355.23 183.795 365.313 183.795C372.961 183.795 377.77 179.154 378.736 174.013H371.671C370.774 176.133 369.296 177.931 365.313 177.931C359.664 177.931 357.545 174.46 357.481 170.15H378.67Z" fill="white"/>
<path d="M125 206.479H132.761V214.086C132.761 218.21 131.457 222.21 129.083 225.352C127.867 226.963 126.499 228.355 125 229.235V234.697C128.082 233.542 130.786 231.305 133.033 228.326C135.511 225.046 137.07 221.049 137.551 216.849H152.067V227.716C152.067 228.844 151.151 229.76 150.021 229.76H145.268V234.697H151.898C154.723 234.697 157.014 232.411 157.014 229.593V211.91H137.709V206.479H159.74V201.542H125V206.479Z" fill="white"/>
<path d="M253.549 200.554H248.604V205.878H244.737V210.815H248.604V217.274L244.737 218.608V223.548L248.604 222.213V227.686C248.604 228.814 247.688 229.727 246.558 229.727H244.737V234.666H248.431C251.258 234.666 253.549 232.379 253.549 229.556V220.507L256.433 219.517V214.58L253.549 215.57V210.815H256.433V205.878H253.549V200.554Z" fill="white"/>
<path d="M279.477 209.616V204.677H271.176V200.553H266.229V204.677H257.926V209.616H266.229V212.487H257.926V217.426H274.164C273.328 219.235 271.482 221.775 268.716 224.157C266.658 222.39 265.291 220.533 264.306 218.943H258.612C259.614 221.029 261.388 224.087 264.519 227.028C262.604 228.058 260.595 228.958 257.926 229.619V234.692C262.463 233.713 265.825 232.139 268.705 230.312C271.532 232.154 275.245 233.739 279.477 234.716V229.621C277.057 228.967 274.709 228.08 272.886 227.061C276.749 223.384 278.778 219.486 279.477 217.426V212.487H271.176V209.616H279.477Z" fill="white"/>
<path d="M186.73 221.494C187.287 222.827 191.286 231.786 199.321 234.69V229.27C195.836 227.316 193.462 223.736 192.235 221.494H186.73Z" fill="white"/>
<path d="M193.166 201.554C192.189 205.266 190.086 211.801 187.478 215.039H164.579V219.978H171.72C170.871 222.488 168.91 226.472 164.579 229.139V234.713C173.14 230.917 176 223.339 176.873 219.978H199.319V215.039H193.357C196.127 210.01 197.798 203.521 198.266 201.554H193.166Z" fill="white"/>
<path d="M175.189 213.479L170.823 201.5H165.56L169.926 213.479H175.189Z" fill="white"/>
<path d="M186.248 213.479L181.881 201.5H176.616L180.982 213.479H186.248Z" fill="white"/>
<path d="M237.35 200.5H232.405V221.897H220.837V226.834H232.405V234.667H237.35V226.834H240.399V221.897H237.35V200.5Z" fill="white"/>
<path d="M214.437 206.48H218.9V201.543H205.029V206.48H209.492V209.65H204.66V214.589H208.98L204.667 221.258V230.371L209.492 222.905V234.698H214.437V220.363L219.269 224.402V217.959L215.239 214.589H219.269V209.65H214.437V206.48Z" fill="white"/>
<path d="M230.501 219.992V214.928L222.257 212.041V217.081L230.501 219.992Z" fill="white"/>
<path d="M230.501 210.849V205.792L222.257 202.927V207.941L230.501 210.849Z" fill="white"/>
<path d="M241.478 91.3789C243.641 89.1977 243.615 85.7032 241.45 83.5328L202.004 44L185.437 60.5997C183.59 62.4502 180.763 62.719 178.631 61.406L178.521 61.5167L224.897 107.996L241.478 91.3789Z" fill="white"/>
<path d="M195.675 91.3948L179.107 108L135.732 64.5301L156.213 44.0038L195.675 83.5536C197.836 85.7187 197.836 89.2293 195.675 91.3948Z" fill="white"/>
<path d="M268.267 64.53L247.795 85.0478L224.304 61.5208L224.414 61.4101C226.546 62.7231 229.373 62.4543 231.22 60.6035L247.787 44.0038L268.267 64.53Z" fill="white"/>
<path d="M35.1137 277.137C34.0787 275.984 31.9495 274.121 30.471 272.82L28.401 275.067C29.85 276.487 31.9495 278.498 32.9254 279.71L35.1137 277.137ZM33.6351 292.751V281.632H26.1831V285.003H30.3527V293.431C30.3527 295.353 28.8741 297.009 28.1052 297.719C28.7262 298.104 29.9091 299.168 30.3231 299.789C30.8554 299.05 31.8608 298.163 37.5385 293.461C37.1837 292.781 36.7105 291.45 36.5035 290.474L33.6351 292.751ZM45.3454 295.827V285.181H51.7328V281.78H45.3454V272.79H41.7081V295.827H34.9658V299.286H53.6254V295.827H45.3454Z" fill="white"/>
<path d="M62.2307 277.611C62.9108 278.823 63.591 280.242 63.8571 281.159L66.8734 279.888C66.6664 279.267 66.2524 278.439 65.7792 277.611H69.3278V274.772H62.7925C63.0291 274.239 63.2657 273.737 63.4727 273.234L60.1607 272.347C59.1848 274.979 57.4992 277.611 55.5475 279.296C56.346 279.681 57.7654 280.597 58.416 281.159C59.3622 280.213 60.3381 279 61.2253 277.611H62.2307ZM57.2627 300.085H60.693V284.412H57.2627V300.085ZM58.7708 281.958C59.9537 283.052 61.314 284.649 61.8758 285.684L64.626 283.761C63.9754 282.697 62.5264 281.248 61.3435 280.213L58.7708 281.958ZM66.9325 294.2V292.603H71.9597V294.2H66.9325ZM71.9597 288.7V290.238H66.9325V288.7H71.9597ZM75.0647 286.127H63.9754V296.773H75.0647V286.127ZM81.6 281.337H65.0695V284.442H78.1401V296.388C78.1401 296.802 77.9922 296.921 77.5191 296.921C77.1051 296.95 75.4787 296.95 74.1775 296.862C74.5915 297.69 75.0351 298.961 75.2125 299.848C77.4304 299.878 79.0272 299.848 80.1214 299.375C81.2451 298.872 81.6 298.074 81.6 296.388V281.337ZM74.9168 274.772C75.1238 274.239 75.3012 273.707 75.4787 273.204L72.1667 272.436C71.457 274.89 70.1262 277.344 68.4702 278.912C69.2982 279.326 70.7177 280.213 71.3387 280.775C72.1075 279.917 72.8764 278.853 73.5565 277.64H74.976C75.7744 278.853 76.6024 280.213 76.8981 281.189L79.9144 279.769C79.6778 279.207 79.2343 278.409 78.7315 277.64H82.6054V274.772H74.9168Z" fill="white"/>
<path d="M91.6838 287.133V285.092H97.0658V287.133H91.6838ZM91.6838 280.42H97.0658V282.431H91.6838V280.42ZM106.292 282.431H100.703V280.42H106.292V282.431ZM106.292 287.133H100.703V285.092H106.292V287.133ZM112.295 291.953H100.703V290.031H109.929V277.551H105.701C106.499 276.428 107.386 275.186 108.185 273.885L104.281 272.761C103.719 274.239 102.684 276.102 101.738 277.551H95.4098L96.6814 276.93C96.09 275.718 94.7592 273.914 93.606 272.672L90.5897 274.003C91.4473 275.067 92.4231 276.428 93.0145 277.551H88.2535V290.031H97.0658V291.953H85.6512V295.235H97.0658V300.055H100.703V295.235H112.295V291.953Z" fill="white"/>
<path d="M119.156 283.229C120.812 281.603 122.349 279.71 123.591 277.67C125.188 279.474 126.874 281.544 128.057 283.229H119.156ZM129.269 284.294L131.517 282.165C130.215 280.183 127.465 277.137 125.188 274.742C125.366 274.328 125.573 273.885 125.75 273.471L122.527 272.465C120.989 276.221 117.884 280.183 114.306 282.608C115.075 283.2 116.258 284.471 116.82 285.21C117.115 284.974 117.441 284.737 117.736 284.501V295.294C117.736 298.695 118.83 299.641 122.29 299.641H127.022C130.038 299.641 130.955 298.399 131.339 294.23C130.452 294.052 129.033 293.52 128.293 292.958C128.116 296.063 127.909 296.655 126.696 296.655H122.704C121.374 296.655 121.167 296.477 121.167 295.265V286.245H125.839C125.661 288.789 125.454 289.883 125.188 290.208C124.981 290.474 124.745 290.533 124.36 290.533C123.917 290.533 123.03 290.533 122.083 290.415C122.527 291.213 122.882 292.455 122.911 293.372C124.212 293.402 125.366 293.372 126.075 293.283C126.874 293.165 127.524 292.929 128.057 292.278C128.737 291.48 129.033 289.321 129.269 284.412V284.294ZM135.302 275.895H131.931V292.603H135.302V275.895ZM137.579 273.086V296.004C137.579 296.566 137.342 296.743 136.78 296.773C136.189 296.773 134.208 296.773 132.345 296.684C132.847 297.63 133.38 299.109 133.527 300.085C136.307 300.085 138.2 299.996 139.412 299.434C140.654 298.902 141.068 298.015 141.068 296.004V273.086H137.579Z" fill="white"/>
<path d="M161.916 276.901C161.709 277.522 161.384 278.291 161.088 278.971H155.055C154.878 278.35 154.553 277.551 154.227 276.901H161.916ZM170.906 278.971H164.696C164.991 278.468 165.287 277.906 165.642 277.315L163.276 276.901H169.338V274.18H160.142C159.905 273.5 159.609 272.761 159.284 272.169L155.854 272.79C156.031 273.204 156.209 273.707 156.357 274.18H146.775V276.901H153.133L150.915 277.344C151.122 277.818 151.359 278.409 151.507 278.971H145.326V281.691H170.906V278.971ZM164.223 286.216H151.98V284.944H164.223V286.216ZM164.223 289.557H151.98V288.286H164.223V289.557ZM167.712 282.756H148.668V291.775H156.179L154.967 292.958C156.623 293.727 158.634 294.969 159.609 295.886L161.768 293.727C161.029 293.136 159.816 292.396 158.663 291.775H167.712V282.756ZM147.426 299.405C148.964 297.985 150.206 295.827 151.093 293.964L148.165 292.662C147.367 294.437 146.036 296.418 144.498 297.69L147.426 299.405ZM156.771 297.009C155.44 297.009 155.203 296.921 155.203 296.152V293.076H151.773V296.181C151.773 298.961 152.69 299.819 156.416 299.819H161.177C163.927 299.819 164.873 298.991 165.258 295.708C164.341 295.531 162.951 295.058 162.271 294.614C162.123 296.684 161.946 297.009 160.851 297.009H156.771ZM164.784 293.638C166.174 295.294 167.653 297.542 168.185 298.991L171.231 297.63C170.58 296.122 169.013 293.964 167.623 292.396L164.784 293.638Z" fill="white"/>
<path d="M178.299 293.993V288.197H183V293.993H178.299ZM183 285.151H178.299V280.361H183V285.151ZM192.404 277.078C192.848 275.836 193.232 274.594 193.557 273.323L190.186 272.554C189.329 276.014 187.909 279.592 186.194 282.076V277.285H181.611C182.113 276.014 182.646 274.535 183.148 273.057L179.304 272.524C179.186 273.914 178.831 275.807 178.446 277.285H175.105V299.257H178.299V297.098H186.194V283.288C186.993 283.821 187.998 284.501 188.471 284.944C189.388 283.673 190.305 282.046 191.073 280.272H197.402C197.076 290.711 196.692 295.146 195.834 296.093C195.45 296.477 195.125 296.595 194.533 296.595C193.764 296.595 192.02 296.595 190.127 296.418C190.748 297.394 191.221 298.872 191.28 299.848C193.025 299.907 194.799 299.937 195.923 299.789C197.106 299.582 197.934 299.257 198.762 298.163C199.974 296.595 200.3 291.894 200.684 278.675C200.714 278.261 200.714 277.078 200.714 277.078H192.404ZM195.805 290.563C194.888 288.848 192.936 286.038 191.458 283.998L188.708 285.565C190.157 287.724 191.99 290.622 192.818 292.396L195.805 290.563Z" fill="white"/>
<path d="M223.513 278.557C222.626 277.256 220.556 275.511 218.959 274.299L216.653 276.309C218.309 277.581 220.231 279.474 221.059 280.745L223.513 278.557ZM222.685 286.305C221.709 285.033 219.521 283.2 217.836 282.017L215.588 284.028C217.303 285.358 219.373 287.251 220.29 288.552L222.685 286.305ZM215.204 288.611C214.642 287.931 212.217 285.151 211.359 284.323V284.087H215.263V280.804H211.359V276.753C212.72 276.457 214.021 276.102 215.174 275.659L213.193 272.79C210.738 273.796 207.042 274.683 203.671 275.215C204.055 275.984 204.499 277.137 204.617 277.936C205.711 277.818 206.805 277.64 207.959 277.463V280.804H203.493V284.087H207.486C206.421 286.955 204.765 290.119 203.109 292.012C203.641 292.899 204.41 294.348 204.735 295.353C205.889 293.875 206.983 291.775 207.959 289.498V300.144H211.359V288.138C212.069 289.321 212.779 290.563 213.134 291.391L215.204 288.611ZM231.202 292.041L230.64 288.759L227.712 289.262V272.524H224.253V289.853L214.76 291.48L215.322 294.821L224.253 293.283V300.114H227.712V292.662L231.202 292.041Z" fill="white"/>
<path d="M242.853 285.092L240.132 285.772V281.396H243.03V278.143H240.132V272.554H236.643V278.143H233.242V281.396H236.643V286.63C235.224 286.985 233.952 287.251 232.858 287.487L233.775 290.829L236.643 290.119V296.211C236.643 296.655 236.495 296.802 236.081 296.802C235.697 296.802 234.484 296.802 233.331 296.773C233.745 297.69 234.189 299.079 234.307 299.967C236.406 299.967 237.826 299.878 238.802 299.346C239.807 298.784 240.132 297.956 240.132 296.241V289.173C241.197 288.907 242.262 288.611 243.297 288.315L242.853 285.092ZM255.243 286.689C254.356 288.7 253.055 290.474 251.517 291.923C250.039 290.415 248.856 288.641 248.028 286.689H255.243ZM257.432 283.377L256.811 283.525H253.262V279.976H259.886V276.723H253.262V272.495H249.773V276.723H243.415V279.976H249.773V283.525H243.947V286.689H245.485L244.598 286.955C245.692 289.676 247.082 292.012 248.797 293.993C246.727 295.324 244.332 296.27 241.729 296.891C242.38 297.66 243.208 299.139 243.592 300.085C246.49 299.227 249.093 298.044 251.399 296.448C253.469 298.074 255.894 299.316 258.762 300.174C259.265 299.257 260.271 297.837 261.01 297.128C258.378 296.477 256.101 295.501 254.149 294.141C256.663 291.657 258.555 288.404 259.679 284.323L257.432 283.377Z" fill="white"/>
<path d="M281.651 295.974C280.379 295.974 280.172 295.797 280.172 294.673V286.245H289.901V282.756H277.245C277.452 281.13 277.54 279.444 277.629 277.818H288.275V274.358H264.765V277.818H273.992C273.933 279.444 273.844 281.13 273.666 282.756H263.021V286.245H272.986C271.774 290.74 269.024 294.703 262.518 297.187C263.435 297.897 264.381 299.198 264.884 300.144C272.01 297.216 275.056 292.426 276.446 287.133V294.732C276.446 298.281 277.422 299.434 281.148 299.434H285.554C288.748 299.434 289.753 298.074 290.167 293.047C289.162 292.81 287.565 292.189 286.796 291.568C286.619 295.353 286.441 295.974 285.258 295.974H281.651Z" fill="white"/>
<path d="M312.346 283.525C313.884 285.565 315.392 287.783 316.161 289.291L319.325 287.369C318.053 285.151 315.333 281.81 313.292 279.326L312.346 279.858V272.524H308.561V294.525H312.346V283.525ZM302.853 280.42C302.41 283.643 301.7 286.334 300.724 288.611C299.808 286.985 299.039 284.974 298.388 282.49C298.625 281.839 298.832 281.13 299.068 280.42H302.853ZM304.421 277.078L303.8 277.167H299.926C300.222 275.895 300.488 274.653 300.724 273.352L296.998 272.583C296.2 278.468 294.485 284.264 292.326 287.221C293.243 287.694 294.544 288.582 295.224 289.203C295.668 288.522 296.141 287.754 296.614 286.866C297.264 288.818 298.033 290.533 298.861 291.923C297.117 294.466 294.78 296.3 291.912 297.571C292.77 298.074 294.248 299.493 294.84 300.321C297.324 299.079 299.453 297.364 301.227 295.028C304.657 298.636 309.063 299.582 313.913 299.582H318.733C318.94 298.547 319.532 296.714 320.094 295.856C318.704 295.886 315.303 295.886 314.12 295.886C310.039 295.886 306.165 295.117 303.12 291.953C304.983 288.315 306.254 283.614 306.816 277.67L304.421 277.078Z" fill="white"/>
<path d="M337.422 283.909V280.834C338.043 279.947 338.635 279.03 339.138 278.113H348.334V274.506H322.696V278.113H334.495C331.745 282.638 327.132 287.221 321.75 289.735C322.518 290.533 323.613 291.982 324.174 292.929C327.723 291.095 330.887 288.522 333.578 285.654V300.085H337.422V284.767C340.616 287.221 344.638 290.592 346.471 292.781L349.458 290.09C347.329 287.754 342.775 284.353 339.611 282.076L337.422 283.909Z" fill="white"/>
<path d="M371.134 289.41H376.989V286.157H371.134V281.248H367.585V286.157H361.582V289.41H367.585V296.152H360.429V299.405H378.142V296.152H371.134V289.41ZM363.83 276.605C364.244 275.541 364.628 274.476 364.953 273.382L361.257 272.495C360.902 273.855 360.459 275.215 359.956 276.605H351.972V279.976H358.389C356.614 283.377 354.13 286.482 351.025 288.493C351.587 289.35 352.386 290.947 352.77 291.894C353.716 291.243 354.544 290.592 355.372 289.824V300.114H358.95V285.802C360.311 283.998 361.434 282.017 362.41 279.976H378.231V276.605H363.83Z" fill="white"/>
</svg>
